<?xml version="1.0" standalone="no"?>
<!DOCTYPE svg PUBLIC "-//W3C//DTD SVG 20010904//EN"
 "http://www.w3.org/TR/2001/REC-SVG-20010904/DTD/svg10.dtd">
<svg version="1.0" xmlns="http://www.w3.org/2000/svg"
 width="200.000000pt" height="200.000000pt" viewBox="0 0 200.000000 200.000000"
 preserveAspectRatio="xMidYMid meet">

<g transform="translate(0.000000,200.000000) scale(0.100000,-0.100000)"
fill="#000000" stroke="none">
<path d="M595 1885 c-51 -18 -101 -72 -115 -124 -7 -27 -10 -272 -8 -783 l3
-743 27 -47 c19 -32 41 -52 71 -67 42 -20 58 -21 427 -21 363 0 386 1 425 20
48 23 79 61 94 116 15 55 15 1474 0 1529 -14 51 -73 110 -124 124 -63 17 -749
14 -800 -4z m804 -79 c15 -8 32 -26 39 -41 9 -19 12 -216 12 -776 l0 -751 -29
-29 -29 -29 -392 0 -392 0 -29 29 -29 29 0 754 c1 807 -1 785 51 814 36 20
759 20 798 0z"/>
<path d="M829 1704 c-9 -11 -10 -20 -2 -32 8 -14 31 -17 136 -20 116 -2 127
-1 136 17 8 15 7 23 -5 35 -23 23 -246 23 -265 0z"/>
<path d="M1149 1704 c-17 -21 0 -49 31 -49 31 0 48 28 31 49 -8 9 -21 16 -31
16 -10 0 -23 -7 -31 -16z"/>
<path d="M960 467 c-70 -25 -101 -117 -60 -184 24 -40 54 -56 106 -56 55 0
100 32 115 84 31 102 -60 191 -161 156z m82 -74 c36 -32 12 -103 -35 -103 -49
0 -75 64 -40 102 20 22 51 23 75 1z"/>
</g>
</svg>
